<svg id="Capa_1" enable-background="new 0 0 24 24" height="512" viewBox="0 0 24 24" width="512" xmlns="http://www.w3.org/2000/svg"><g id="_x33_"><path d="m18 2c2.206 0 4 1.794 4 4v12c0 2.206-1.794 4-4 4h-12c-2.206 0-4-1.794-4-4v-12c0-2.206 1.794-4 4-4zm0-2h-12c-3.314 0-6 2.686-6 6v12c0 3.314 2.686 6 6 6h12c3.314 0 6-2.686 6-6v-12c0-3.314-2.686-6-6-6z"/></g><path d="m13.414 12 2.828-2.828c.391-.391.391-1.023 0-1.414s-1.023-.391-1.414 0l-2.828 2.828-2.829-2.829c-.391-.391-1.023-.391-1.414 0s-.391 1.023 0 1.414l2.829 2.829-2.828 2.828c-.391.391-.391 1.023 0 1.414.195.195.451.293.707.293s.512-.098.707-.293l2.828-2.828 2.828 2.828c.195.195.451.293.707.293s.512-.098.707-.293c.391-.391.391-1.023 0-1.414z"/></svg>