<svg height="512" viewBox="0 0 59 56" width="512" xmlns="http://www.w3.org/2000/svg"><g id="029---Cutting-Angle"><path id="Shape" d="m17.07 51.07c2.1227482-2.1223154 3.1798566-5.085936 2.8794479-8.0725791-.3004086-2.9866432-1.9265559-5.680371-4.4294479-7.3374209l26.3-26.31-.71-.71c-1.3127752-1.31290914-3.0933608-2.05050508-4.95-2.05050508s-3.6372248.73759594-4.95 2.05050508c-15.42 15.36-9.64 9.67-28.28 28.29-3.7897221 3.9237889-3.73552374 10.1608478.12181425 14.0181858 3.85733798 3.8573379 10.09439685 3.9115363 14.01818575.1218142zm-10.61-10.61c1.95392317-1.9489899 5.1174497-1.9463241 7.0680854.005956 1.9506357 1.9522802 1.9506357 5.1158078 0 7.068088-1.9506357 1.9522801-5.11416223 1.9549459-7.0680854.005956-.94041701-.9380426-1.46893784-2.2117274-1.46893784-3.54s.52852083-2.6019574 1.46893784-3.54z"/><path id="Rectangle-path" d="m22.342 29.758h8v10.14h-8z" transform="matrix(.707 -.707 .707 .707 -16.911 28.827)"/><path id="Shape" d="m11.45 25.59 5.66-5.66-1.59-1.59c3.5261208-2.33292 5.2040158-6.6313441 4.1908765-10.73616958-1.0131392-4.10482553-4.4983509-7.12890898-8.7050097-7.55325026-4.20665878-.42434127-8.22561278 1.84276916-10.03813743 5.66255948-1.81252465 3.81979033-1.0268933 8.36671946 1.96227063 11.35686036zm-5-19.13c1.95392317-1.94898988 5.1174497-1.94632407 7.0680854.00595605s1.9506357 5.11580775 0 7.06808795c-1.9506357 1.9522801-5.11416223 1.9549459-7.0680854.005956-.93909332-.9393703-1.465816-2.2138018-1.46393991-3.54207477.00187609-1.32827302.53219676-2.60121153 1.47393991-3.53792523z"/><path id="Shape" d="m18.29 54.29c-.2884599.2860905-.3751619.7182668-.219371 1.0934815.155791.3752147.5231059.6188811.929371.6165185.265803.0015368.5212812-.1028135.71-.29l1.41-1.42c.3397768-.3967603.3169323-.9881942-.0524368-1.3575632-.369369-.3693691-.9608029-.3922136-1.3575632-.0524368z"/><path id="Shape" d="m35 40.38 2.79-2.78c.3921222-.3921222.3921222-1.0278778 0-1.42s-1.0278778-.3921222-1.42 0l-2.75 2.82c-.2813286.2870058-.363505.7145455-.208621 1.0853946.1548841.3708491.5167313.6129438.918621.6146054.2561244-.0167294.49601-.1313016.67-.32z"/><path id="Shape" d="m32.25 41.75c-.3900375-.3877236-1.0199625-.3877236-1.41 0l-2.79 2.78c-.2884599.2860905-.3751619.7182668-.219371 1.0934815.155791.3752147.5231059.6188811.929371.6165185.265803.0015368.5212812-.1028135.71-.29l2.78-2.79c.3877236-.3900375.3877236-1.0199625 0-1.41z"/><path id="Shape" d="m40.6 34.82 2.78-2.82c.2505935-.3953097.1934689-.9115522-.1374895-1.2425105-.3309583-.3309584-.8472008-.388083-1.2425105-.1374895l-2.82 2.78c-.2884599.2860905-.3751619.7182668-.219371 1.0934815.155791.3752147.5231059.6188811.929371.6165185.265803.0015368.5212812-.1028135.71-.29z"/><path id="Shape" d="m46.16 29.25 2.84-2.78c.2536586-.2536586.3527235-.623374.2598781-.9698781-.0928455-.346504-.363496-.6171545-.71-.71-.3465041-.0928454-.7162195.0062195-.9698781.2598781l-2.78 2.79c-.2813286.2870058-.363505.7145455-.208621 1.0853946.1548841.3708491.5167313.6129438.918621.6146054.2449001-.0136787.4762316-.1168881.65-.29z"/><path id="Shape" d="m25.27 47.31-2.78 2.79c-.3397768.3967603-.3169323.9881942.0524368 1.3575632.369369.3693691.9608029.3922136 1.3575632.0524368l2.79-2.78c.2536586-.2536586.3527235-.623374.259878-.969878-.0928454-.3465041-.3634959-.6171546-.71-.71-.346504-.0928455-.7162194.0062194-.969878.259878z"/><path id="Shape" d="m53.1 19.49-2.79 2.78c-.2536586.2536586-.3527236.623374-.2598781.9698781.0928455.346504.363496.6171545.71.71.3465041.0928455.7162195-.0062195.9698781-.2598781l2.78-2.79c.3397768-.3967603.3169323-.9881942-.0524368-1.3575632-.369369-.3693691-.9608029-.3922136-1.3575632-.0524368z"/><path id="Shape" d="m57.29 15.29-1.41 1.42c-.3397768.3967603-.3169323.9881942.0524368 1.3575632.369369.3693691.9608029.3922136 1.3575632.0524368l1.42-1.41c.2536586-.2536586.3527235-.623374.259878-.969878-.0928454-.3465041-.3634959-.6171546-.71-.71-.346504-.0928455-.7162194.0062194-.969878.259878z"/></g></svg>