<svg height="512" viewBox="0 0 30 30" width="512"
  xmlns="http://www.w3.org/2000/svg">
  <g id="b5746ed8-1055-48f7-97e1-89fe397d4382" data-name="Layer 6">
    <path d="m26 5h-5v-2a1 1 0 0 0 -1-1h-8a1 1 0 0 0 -1 1v2h-5a1 1 0 0 0 -1 1v3a1 1 0 0 0 1 1l1 19.05a1 1 0 0 0 1 .95h16a1 1 0 0 0 1-.95l1-19.05a1 1 0 0 0 1-1v-3a1 1 0 0 0 -1-1zm-13-1h6v1h-6zm-6 3h18v1h-18zm16.05 21h-14.05l-.9-18h15.9zm-11.05-2a1 1 0 0 1 -1-1v-12a1 1 0 0 1 2 0v12a1 1 0 0 1 -1 1zm8 0a1 1 0 0 1 -1-1v-12a1 1 0 0 1 2 0v12a1 1 0 0 1 -1 1zm-4 0a1 1 0 0 1 -1-1v-12a1 1 0 0 1 2 0v12a1 1 0 0 1 -1 1z"/>
  </g>
</svg>